<svg xmlns="http://www.w3.org/2000/svg" viewBox="3 81 18 18" width="24" height="18">
  <g fill="#9B9B9B" fill-rule="evenodd">
    <path d="M17.5557 86.296c-.319 0-.5846.2572-.5846.5852v10.214c0 .1063-.132.2304-.327.2304H6.821c-.195 0-.3278-.124-.3278-.2305V86.882c0-.3192-.257-.5852-.5846-.5852-.3187 0-.5844.2573-.5844.5853v10.214c0 .7715.673 1.392 1.497 1.392h9.8226c.8237 0 1.497-.6294 1.497-1.392V86.881c0-.328-.257-.5852-.5847-.5852zm2.3384-2.6776h-4.561v-1.3388c0-.7004-.567-1.2767-1.275-1.2767H9.425c-.6998 0-1.2755.576-1.2755 1.276v1.339H3.5877c-.319 0-.5846.257-.5846.585 0 .319.257.585.585.585h16.306c.319 0 .585-.257.585-.585-.009-.328-.266-.585-.5845-.585zm-5.722 0H9.319v-1.3388c0-.062.053-.1064.1063-.1064h4.6324c.062 0 .1064.0532.1064.1064l.009 1.3388z"/>
    <path d="M9.3183 95.3573v-6.632c0-.319-.257-.585-.5846-.585-.319 0-.5846.257-.5846.585v6.632c0 .3192.257.5852.585.5852.319-.009.585-.266.585-.5852zm6.0053 0v-6.632c0-.319-.2568-.585-.5846-.585-.3188 0-.5846.257-.5846.585v6.632c0 .3192.257.5852.5846.5852.3366-.009.5846-.266.5846-.5852zm-2.9938 0v-6.632c0-.319-.257-.585-.5846-.585-.319 0-.5846.257-.5846.585v6.632c0 .3192.257.5852.5846.5852.319-.009.5846-.266.5846-.5852z"/>
  </g>
</svg>
