<!--
@Author: eason
@Date:   2017-03-09T19:51:50+08:00
@Email:  uniquecolesmith@gmail.com
@Last modified by:   eason
@Last modified time: 2017-03-09T20:00:43+08:00
@License: MIT
@Copyright: Eason(uniquecolesmith@gmail.com)
-->

<svg width="18px" height="18px" viewBox="3 81 18 18" version="1.1" xmlns="http://www.w3.org/2000/svg" xmlns:xlink="http://www.w3.org/1999/xlink">
    <g id="clear" stroke="none" stroke-width="1" fill="none" fill-rule="evenodd" transform="translate(3.000000, 81.000000)">
        <g id="Group" fill="#9B9B9B">
            <path d="M14.5556933,5.2960412 C14.2368252,5.2960412 13.9711018,5.55316151 13.9711018,5.88121157 L13.9711018,16.0950944 C13.9711018,16.201489 13.8382401,16.325616 13.6433762,16.325616 L3.82046642,16.325616 C3.62560256,16.325616 3.49274084,16.201489 3.49274084,16.0950944 L3.49274084,5.88121157 C3.49274084,5.56202773 3.23587485,5.2960412 2.90814928,5.2960412 C2.58928115,5.2960412 2.32355771,5.55316151 2.32355771,5.88121157 L2.32355771,16.0950944 C2.32355771,16.8664553 2.99672376,17.4870905 3.82046642,17.4870905 L13.6433762,17.4870905 C14.4671189,17.4870905 15.1402849,16.8575891 15.1402849,16.0950944 L15.1402849,5.88121157 C15.1402849,5.55316151 14.8834189,5.2960412 14.5556933,5.2960412 L14.5556933,5.2960412 Z M16.8940596,2.61844345 L12.3324739,2.61844345 L12.3324739,1.27964458 C12.3324739,0.579213379 11.7655972,0.00290922768 11.0570014,0.00290922768 L6.42455612,0.00290922768 C5.72481773,0.00290922768 5.14908361,0.579213379 5.14908361,1.27964458 L5.14908361,2.61844345 L0.587497915,2.61844345 C0.268629789,2.61844345 0.00290635011,2.87556376 0.00290635011,3.20361382 C0.00290635011,3.52279766 0.259772341,3.78878419 0.587497915,3.78878419 L16.8940596,3.78878419 C17.2129277,3.78878419 17.4786512,3.53166387 17.4786512,3.20361382 C17.4697937,2.87556376 17.2129277,2.61844345 16.8940596,2.61844345 L16.8940596,2.61844345 Z M11.1721482,2.61844345 L6.31826674,2.61844345 L6.31826674,1.27964458 C6.31826674,1.21758105 6.37141143,1.17324996 6.42455612,1.17324996 L11.0570014,1.17324996 C11.1190035,1.17324996 11.1632908,1.22644727 11.1632908,1.27964458 L11.1721482,2.61844345 L11.1721482,2.61844345 Z" id="Shape"></path>
            <path d="M6.31826674,14.3573157 L6.31826674,7.72538485 C6.31826674,7.40620101 6.06140075,7.14021448 5.73367518,7.14021448 C5.41480705,7.14021448 5.14908361,7.39733479 5.14908361,7.72538485 L5.14908361,14.3573157 C5.14908361,14.6764995 5.4059496,14.9424861 5.73367518,14.9424861 C6.0525433,14.9336198 6.31826674,14.6764995 6.31826674,14.3573157 L6.31826674,14.3573157 Z M12.3236165,14.3573157 L12.3236165,7.72538485 C12.3236165,7.40620101 12.0667505,7.14021448 11.7390249,7.14021448 C11.4201568,7.14021448 11.1544333,7.39733479 11.1544333,7.72538485 L11.1544333,14.3573157 C11.1544333,14.6764995 11.4112993,14.9424861 11.7390249,14.9424861 C12.0756079,14.9336198 12.3236165,14.6764995 12.3236165,14.3573157 L12.3236165,14.3573157 Z M9.32979905,14.3573157 L9.32979905,7.72538485 C9.32979905,7.40620101 9.07293306,7.14021448 8.74520748,7.14021448 C8.42633936,7.14021448 8.16061592,7.39733479 8.16061592,7.72538485 L8.16061592,14.3573157 C8.16061592,14.6764995 8.41748191,14.9424861 8.74520748,14.9424861 C9.06407561,14.9336198 9.32979905,14.6764995 9.32979905,14.3573157 L9.32979905,14.3573157 Z" id="Shape"></path>
        </g>
    </g>
</svg>
